<svg height="297mm" viewBox="0 0 210 297" width="210mm" xmlns="http://www.w3.org/2000/svg"><g stroke-width=".469028" transform="matrix(2 0 0 2 -128.52648 -64.25349)"><g fill="#ff8700"><path d="m165.21387 84.189365a48.450624 48.450624 0 0 0 -48.43657-48.465633 48.450624 48.450624 0 0 0 -48.46469 48.436082 48.450624 48.450624 0 0 0 25.800779 42.844806v50.02514l22.848711-10.25624 22.84684 10.25624v-50.22917a48.493776 48.493776 0 0 0 25.40493-42.611225zm-48.45345 33.120435a33.119027 33.119027 0 0 1 -33.11715-33.120896 33.119027 33.119027 0 0 1 33.1209-33.117152 33.119027 33.119027 0 0 1 33.11716 33.117613 33.157487 33.157487 0 0 1 -33.12091 33.120435zm23.04804 7.87967v-3.24004a44.253758 44.253758 0 0 0 14.73408-60.825002 44.253758 44.253758 0 0 0 -60.825012-14.734533 44.253758 44.253758 0 0 0 -14.734054 60.825475 44.249538 44.249538 0 0 0 15.128508 14.97185v3.2316a47.060424 47.060424 0 0 1 -18.613858-63.898529 47.059955 47.059955 0 0 1 63.897136-18.613868 47.060894 47.060894 0 0 1 18.61197 63.898547 47.063708 47.063708 0 0 1 -18.19829 18.3845z"/><path d="m123.28648 63.750053c-3.11153 0-4.30896.600823-4.30896 3.734399 0 6.872673 6.10675 20.617079 11.01606 20.617079 2.75273 0 8.14281-10.370682 8.14281-18.928116.001-4.218436-7.4266-5.423362-14.84991-5.423362z"/><path d="m125.08567 96.090954c-5.86285 0-14.48734-20.64849-14.48734-27.521163 0-2.529473.59426-3.374203 1.43428-4.098371-7.18316.844251-15.802497 3.498009-18.558976 6.871733-.595666.844251-.957287 2.170182-.957287 3.858223 0 10.728076 11.373463 35.072534 19.397133 35.072534 3.71236 0 10.30643-6.46133 15.11865-14.462494-.38834.263602-1.60501.281417-1.88736.281417z"/></g><g fill="#fff"><path d="m117.45224 160.59501c-2.09656 0-5.58144-.29502-5.58144-.29502v-20.6682s3.57306-.29595 5.22638-.29595c4.7536 0 7.35155 1.59469 7.35155 10.30408 0 8.79944-2.42065 10.95463-6.99696 10.95463m.29502-17.68613a12.82511 12.82511 0 0 0 -1.82921.11824v13.87713a9.8964974 9.8964974 0 0 0 1.80153.11824c1.82921 0 2.62656-1.50558 2.62656-7.17612 0-6.34877-.82643-6.93834-2.59795-6.93834"/><path d="m111.13912 123.87432v10.13101h-1.41272v-10.13101h-2.50039v-1.23354h6.41115v1.23354z"/><path d="m119.6956 133.84446a8.9396796 8.9396796 0 0 1 -1.80248.27672c-2.32169 0-3.27944-1.13787-3.27944-5.97588 0-4.78925 1.10362-5.61662 3.47456-5.61662a7.1292303 7.1292303 0 0 1 1.60689.22653v1.20212a8.6868734 8.6868734 0 0 0 -1.89956-.21199c-1.18524 0-1.73541.58488-1.73541 4.51439 0 4.09133.58488 4.64339 1.75323 4.64339a9.2028044 9.2028044 0 0 0 1.88315-.24343v1.18477z"/><path d="m126.23901 133.84446a8.9396796 8.9396796 0 0 1 -1.80247.27672c-2.32169 0-3.27851-1.13787-3.27851-5.97588 0-4.78925 1.10268-5.61662 3.47363-5.61662a7.1348586 7.1348586 0 0 1 1.60782.22653v1.20212a8.6910946 8.6910946 0 0 0 -1.90003-.21199c-1.18477 0-1.73541.58488-1.73541 4.51439 0 4.09133.58488 4.64339 1.75323 4.64339a9.2225036 9.2225036 0 0 0 1.88174-.24295z"/></g></g></svg>